<svg width="612" height="614.232" xmlns="http://www.w3.org/2000/svg">
 <g>
  <title>Layer 1</title>
  <path id="svg_31" d="m305.356995,67.629997c-69.964996,0 -126.886993,56.921005 -126.886993,126.88401c0,69.964996 56.92099,126.886993 126.886993,126.886993s126.886993,-56.92099 126.886993,-126.886993c0,-69.963005 -56.92099,-126.88401 -126.886993,-126.88401z" fill="#44C8F5"/>
  <path id="svg_32" d="m210.173004,26.462999c-3.253998,-3.254 -8.524002,-3.254 -11.778,0l-90.641998,90.638998c-3.253998,3.250999 -3.253998,8.524002 0,11.778008c1.626999,1.626999 3.758003,2.439987 5.889,2.439987c2.130997,0 4.262001,-0.812988 5.889,-2.439987l90.641998,-90.639008c3.253998,-3.250996 3.253998,-8.523998 0,-11.777998z" fill="#B5B5B6"/>
  <path id="svg_33" d="m456.75,173.343002c-4.528015,0.253998 -7.832001,4.345993 -7.850006,8.882004c-0.007996,2.07399 -0.069,16.847992 -0.165009,18.899994c-0.043976,0.966995 -0.117981,1.925995 -0.181,2.889008c-0.075989,1.133987 -0.156982,2.265991 -0.258972,3.39299c-0.107025,1.195999 -0.229004,2.386002 -0.365021,3.572998c-0.088989,0.764008 -0.190002,1.524002 -0.290985,2.284012c-9.220001,70.317993 -69.488007,124.79599 -142.281006,124.79599c-72.797012,0 -133.067001,-54.483002 -142.281998,-124.806c-0.105011,-0.792999 -0.212006,-1.585999 -0.304001,-2.384003c-0.132004,-1.156998 -0.249008,-2.317993 -0.353012,-3.483994c-0.104996,-1.158997 -0.188995,-2.322006 -0.265991,-3.488998c-0.061005,-0.934998 -0.130997,-1.867004 -0.174011,-2.806c-0.097,-2.095001 -0.159988,-16.912003 -0.165985,-19.029007c-0.011002,-4.050003 -2.666,-7.785995 -6.641006,-8.567001c-5.339996,-1.048996 -10.018005,3.01001 -10.018005,8.16301c0,0.603989 0.003006,13.918991 0.01001,14.521988c0.42099,37.793015 14.011993,72.470001 36.369995,99.688019c4.067001,4.950989 6.412994,11.087982 6.412994,17.494995v29.55899c0,11.89801 9.645004,21.542999 21.542999,21.542999h191.733002c11.89801,0 21.542999,-9.644989 21.542999,-21.542999v-29.55899c0,-6.407013 2.346008,-12.544006 6.412994,-17.494995c22.473022,-27.359009 36.08902,-62.251999 36.376007,-100.272003c0.002991,-0.408005 0.005005,-13.529007 0.005005,-13.938004c0,-4.76001 -3.990997,-8.585999 -8.809998,-8.315002z" fill="#B5B5B6"/>
  <path id="svg_34" d="m224.182999,72.277l0,0l9.682007,-9.681c3.188995,-3.188999 3.656998,-8.436001 0.638,-11.785999c-3.220001,-3.573002 -8.727005,-3.681 -12.084,-0.323002l-90.641998,90.639008c-3.254013,3.250992 -3.254013,8.523987 0,11.778c1.626999,1.626999 3.757996,2.439987 5.888992,2.439987c2.130997,0 4.261993,-0.812988 5.889008,-2.439987l0.196991,-0.197006c5.421005,-5.421005 14.210999,-5.421005 19.632004,0l3.625,3.625c9.367004,-33.895004 31.613998,-61.298004 57.173996,-84.055z" fill="#B5B5B6"/>
  <path id="svg_35" d="m386.531006,72.277l0,0l-9.682007,-9.681c-3.188995,-3.188999 -3.656982,-8.436001 -0.638,-11.785999c3.220001,-3.573002 8.72702,-3.681 12.084015,-0.323002l90.641998,90.639008c3.253998,3.250992 3.253998,8.523987 0,11.778c-1.627014,1.626999 -3.757996,2.439987 -5.889008,2.439987c-2.131012,0 -4.261993,-0.812988 -5.889008,-2.439987l-0.196991,-0.197006c-5.42099,-5.421005 -14.210999,-5.421005 -19.631989,0l-3.625,3.625c-9.366028,-33.895004 -31.613007,-61.298004 -57.174011,-84.055z" fill="#B5B5B6"/>
  <path id="svg_36" d="m400.541992,26.464001c3.253998,-3.254 8.523987,-3.254 11.777985,0l90.641998,90.639004c3.254028,3.250999 3.254028,8.523994 0,11.777992c-1.626984,1.626999 -3.757996,2.440002 -5.888977,2.440002c-2.131012,0 -4.261993,-0.813004 -5.889008,-2.440002l-90.641998,-90.638996c-3.253998,-3.250999 -3.253998,-8.525002 0,-11.778z" fill="#B5B5B6"/>
  <path id="svg_37" d="m323.75,99.539001c0.52301,-2.112999 1.466003,-4.078003 2.72699,-5.800003c-6.828003,-1.425995 -13.867981,-2.280998 -21.121002,-2.280998c-32.386993,0 -61.269989,14.952003 -80.161987,38.316002c21.591003,-18.404999 49.567993,-29.537003 80.161987,-29.537003c5.851013,0 11.567017,0.529007 17.200012,1.316002c0.032013,-0.029999 0.069,-0.029999 0.101013,-0.061996c0.533997,-0.538002 0.91098,-1.210007 1.092987,-1.952003z" fill="#B4E3F7"/>
  <path id="svg_58" d="m210.319,27.278c-3.248993,-3.249001 -8.511993,-3.249001 -11.761002,0l-90.509003,90.505997c-3.249001,3.246002 -3.249001,8.512001 0,11.761002c1.624001,1.623993 3.751999,2.436996 5.880005,2.436996c2.127998,0 4.255997,-0.811996 5.879997,-2.436996l90.50901,-90.505997c3.249985,-3.246002 3.249985,-8.512001 0.000992,-11.761002z" fill="#B5B5B6"/>
 </g>
</svg>