<?xml version="1.0" encoding="utf-8"?>
<!-- Generator: Adobe Illustrator 17.1.0, SVG Export Plug-In . SVG Version: 6.00 Build 0)  -->
<!DOCTYPE svg PUBLIC "-//W3C//DTD SVG 1.1//EN" "http://www.w3.org/Graphics/SVG/1.1/DTD/svg11.dtd">
<svg version="1.1" id="Layer_1" xmlns="http://www.w3.org/2000/svg" xmlns:xlink="http://www.w3.org/1999/xlink" x="0px" y="0px"
	 viewBox="0 0 612 163.461" enable-background="new 0 0 612 163.461" xml:space="preserve">

<path fill="#44C7F4" d="M96.326,23.51c-32.824,0-59.529,26.705-59.529,59.528c0,32.824,26.705,59.529,59.529,59.529
	s59.529-26.705,59.529-59.529C155.855,50.215,129.151,23.51,96.326,23.51z"/>
<path fill="#B4B4B5" d="M51.67,4.197c-1.526-1.526-3.999-1.526-5.526,0L3.62,46.72c-1.526,1.525-1.526,3.999,0,5.526
	c0.763,0.763,1.763,1.145,2.763,1.145s2-0.382,2.763-1.145L51.67,9.722C53.197,8.197,53.197,5.723,51.67,4.197z"/>
<path fill="#B4B4B5" d="M167.352,73.105c-2.125,0.119-3.674,2.039-3.683,4.167c-0.004,0.973-0.033,7.904-0.078,8.867
	c-0.021,0.454-0.055,0.904-0.085,1.355c-0.036,0.532-0.073,1.063-0.121,1.592c-0.05,0.561-0.107,1.119-0.171,1.676
	c-0.042,0.358-0.089,0.715-0.137,1.072c-4.326,32.99-32.6,58.548-66.751,58.548c-34.153,0-62.429-25.561-66.752-58.553
	c-0.049-0.372-0.099-0.744-0.143-1.118c-0.062-0.543-0.117-1.088-0.165-1.634c-0.049-0.544-0.089-1.09-0.125-1.637
	c-0.028-0.439-0.061-0.876-0.081-1.316c-0.046-0.983-0.075-7.934-0.078-8.928c-0.005-1.9-1.251-3.653-3.115-4.019
	c-2.505-0.492-4.7,1.412-4.7,3.83c0,0.283,0.002,6.53,0.005,6.813c0.197,17.731,6.574,33.999,17.063,46.769
	c1.908,2.323,3.009,5.202,3.009,8.208v13.868c0,5.582,4.525,10.107,10.107,10.107h89.952c5.582,0,10.107-4.525,10.107-10.107
	v-13.868c0-3.006,1.101-5.885,3.009-8.208c10.543-12.835,16.931-29.206,17.066-47.043c0.001-0.191,0.002-6.347,0.002-6.539
	C171.485,74.773,169.613,72.979,167.352,73.105z"/>
<path fill="#FFFFFF" d="M139.42,65.583l-2.875-10.154c-0.211-0.75-0.985-1.198-1.736-0.996c-1.452,0.375-3.008,0.35-4.494-0.07
	c-4.672-1.324-7.521-6.186-6.35-10.84c0.189-0.751-0.253-1.517-0.999-1.728l-10.154-2.877c-0.375-0.106-0.775-0.056-1.112,0.14
	c-0.336,0.197-0.578,0.521-0.67,0.9c-0.357,1.464-1.105,2.796-2.166,3.856c-1.557,1.557-3.655,2.415-5.908,2.416
	c-2.405,0-4.689-0.96-6.431-2.7c-0.56-0.56-1.466-0.56-2.026,0l-7.276,7.276c-0.27,0.27-0.421,0.637-0.42,1.019
	c0.001,0.382,0.155,0.747,0.427,1.014c1.121,1.105,1.938,2.482,2.362,3.982c0.641,2.263,0.361,4.606-0.788,6.599
	c-1.131,1.962-2.973,3.351-5.191,3.915c-0.375,0.095-0.695,0.337-0.889,0.672c-0.193,0.336-0.243,0.735-0.137,1.107l2.874,10.153
	c0.211,0.75,0.982,1.198,1.738,0.996c1.465-0.379,3.027-0.36,4.518,0.064c4.657,1.319,7.508,6.172,6.357,10.819
	c-0.186,0.75,0.257,1.513,1,1.722l10.151,2.874c0.129,0.036,0.259,0.055,0.39,0.055c0.25,0,0.498-0.066,0.719-0.193
	c0.336-0.196,0.578-0.518,0.672-0.896c0.36-1.451,1.108-2.777,2.163-3.832c1.559-1.559,3.658-2.416,5.909-2.416
	c2.388,0,4.658,0.946,6.393,2.666c0.562,0.554,1.465,0.553,2.022-0.006l7.276-7.277c0.27-0.269,0.42-0.634,0.42-1.014
	c0-0.382-0.153-0.746-0.423-1.014c-1.1-1.094-1.904-2.458-2.326-3.946c-0.639-2.26-0.362-4.599,0.782-6.59
	c1.126-1.958,2.964-3.348,5.174-3.915c0.375-0.097,0.694-0.339,0.887-0.674C139.476,66.353,139.525,65.955,139.42,65.583z
	 M102.241,58.559c2.226-2.226,5.212-3.452,8.405-3.452c3.327,0,6.476,1.315,8.864,3.702c2.334,2.334,3.649,5.411,3.702,8.664
	c0.053,3.27-1.173,6.327-3.452,8.605c-2.226,2.226-5.211,3.453-8.404,3.453c-3.329,0-6.477-1.315-8.865-3.704
	C97.661,70.997,97.549,63.251,102.241,58.559z"/>
<path fill="#FFFFFF" d="M95.949,103.477c-0.995-0.257-1.918-0.788-2.671-1.535c-2.37-2.349-2.467-6.221-0.215-8.63
	c0.529-0.565,0.512-1.45-0.038-1.995l-5.47-5.426c-0.277-0.273-0.631-0.417-1.041-0.416c-0.389,0.01-0.758,0.176-1.021,0.462
	c-0.697,0.757-1.585,1.307-2.57,1.59c-0.505,0.146-1.024,0.218-1.545,0.218c-2.629,0-4.998-1.848-5.759-4.496
	c-0.217-0.76-1.01-1.199-1.773-0.981l-7.219,2.076c-0.367,0.105-0.677,0.353-0.861,0.688c-0.183,0.334-0.225,0.729-0.118,1.094
	c0.306,1.037,0.339,2.135,0.095,3.179c-0.62,2.656-2.916,4.511-5.584,4.511c-0.493,0-0.989-0.064-1.476-0.192
	c-0.375-0.099-0.772-0.042-1.104,0.158c-0.33,0.2-0.567,0.525-0.655,0.901l-1.753,7.501c-0.178,0.758,0.284,1.52,1.038,1.714
	c1.005,0.257,1.934,0.789,2.688,1.538c2.363,2.344,2.464,6.21,0.227,8.619c-0.526,0.567-0.508,1.448,0.041,1.992l5.47,5.425
	c0.276,0.273,0.639,0.403,1.038,0.416c0.388-0.008,0.756-0.174,1.02-0.458c0.697-0.75,1.583-1.294,2.562-1.576
	c0.505-0.146,1.026-0.218,1.546-0.218c2.614,0,4.977,1.834,5.747,4.462c0.183,0.624,0.754,1.03,1.375,1.03
	c0.13,0,0.264-0.018,0.396-0.056l7.22-2.076c0.365-0.105,0.674-0.351,0.859-0.684c0.183-0.333,0.227-0.726,0.12-1.091
	c-0.297-1.026-0.326-2.114-0.085-3.148c0.62-2.656,2.916-4.51,5.583-4.51c0.488,0,0.981,0.064,1.464,0.189
	c0.371,0.097,0.768,0.041,1.101-0.161c0.33-0.199,0.565-0.523,0.653-0.9l1.752-7.503C97.163,104.431,96.703,103.671,95.949,103.477z
	 M78.695,112.733c-0.807,0.232-1.641,0.35-2.477,0.35c-4.101,0-7.78-2.828-8.945-6.879c-0.694-2.412-0.437-4.945,0.726-7.13
	c1.171-2.202,3.119-3.789,5.482-4.469c0.807-0.232,1.64-0.35,2.475-0.35c4.103,0,7.781,2.828,8.947,6.879
	C86.34,106.132,83.554,111.336,78.695,112.733z"/>
<path fill="#B4B4B5" d="M58.243,25.69L58.243,25.69l4.542-4.542c1.496-1.496,1.716-3.958,0.299-5.53
	c-1.511-1.676-4.094-1.727-5.669-0.151L14.89,57.991c-1.526,1.525-1.526,3.999,0,5.526c0.763,0.763,1.763,1.145,2.763,1.145
	c1,0,2-0.382,2.763-1.145l0.092-0.092c2.543-2.543,6.667-2.543,9.21,0l1.701,1.701C35.814,49.223,46.251,36.367,58.243,25.69z"/>
<path fill="#B4B4B5" d="M134.409,25.69L134.409,25.69l-4.542-4.542c-1.496-1.496-1.716-3.958-0.299-5.53
	c1.511-1.676,4.094-1.727,5.669-0.151l42.525,42.524c1.526,1.525,1.526,3.999,0,5.526c-0.763,0.763-1.763,1.145-2.763,1.145
	s-2-0.382-2.763-1.145l-0.092-0.092c-2.543-2.543-6.667-2.543-9.21,0l-1.701,1.701C156.838,49.223,146.401,36.367,134.409,25.69z"/>
<path fill="#B4B4B5" d="M51.67,4.197c-1.526-1.526-3.999-1.526-5.526,0L3.62,46.72c-1.526,1.525-1.526,3.999,0,5.526
	c0.763,0.763,1.763,1.145,2.763,1.145s2-0.382,2.763-1.145L51.67,9.722C53.197,8.197,53.197,5.723,51.67,4.197z"/>
<path fill="#B4B4B5" d="M140.982,4.197c1.526-1.526,3.999-1.526,5.526,0l42.525,42.524c1.526,1.525,1.526,3.999,0,5.526
	c-0.763,0.763-1.763,1.145-2.763,1.145s-2-0.382-2.763-1.145L140.982,9.722C139.456,8.197,139.456,5.723,140.982,4.197z"/>
<path fill="#B3E2F6" d="M104.955,38.48c0.245-0.991,0.688-1.913,1.279-2.721c-3.204-0.669-6.506-1.07-9.909-1.07
	c-15.195,0-28.745,7.015-37.608,17.976c10.129-8.635,23.255-13.857,37.608-13.857c2.745,0,5.427,0.248,8.069,0.617
	c0.015-0.014,0.033-0.014,0.048-0.029C104.693,39.144,104.87,38.828,104.955,38.48z"/>
<path fill="#44C7F4" d="M159.032,4.84l29.356,29.357l3.804-3.804c0.969-0.969,0.969-2.539,0-3.507L166.343,1.037
	c-0.968-0.968-2.539-0.968-3.507,0L159.032,4.84z"/>
</svg>
