<?xml version="1.0" encoding="utf-8"?>
<!-- Generator: Adobe Illustrator 17.1.0, SVG Export Plug-In . SVG Version: 6.00 Build 0)  -->
<!DOCTYPE svg PUBLIC "-//W3C//DTD SVG 1.1//EN" "http://www.w3.org/Graphics/SVG/1.1/DTD/svg11.dtd">
<svg version="1.1" id="Layer_1" xmlns="http://www.w3.org/2000/svg" xmlns:xlink="http://www.w3.org/1999/xlink" x="0px" y="0px"
	 viewBox="0 0 123.5 122.5" enable-background="new 0 0 123.5 122.5" xml:space="preserve">
<path fill="#FFFFFF" d="M122.257,57.526l-6.129-21.644c-0.45-1.599-2.1-2.553-3.701-2.124c-3.096,0.799-6.412,0.746-9.58-0.149
	c-9.958-2.821-16.031-13.185-13.534-23.105c0.403-1.602-0.54-3.233-2.129-3.683L65.54,0.69c-0.799-0.227-1.652-0.119-2.371,0.298
	c-0.716,0.421-1.232,1.109-1.429,1.918c-0.761,3.12-2.356,5.959-4.617,8.22c-3.319,3.319-7.79,5.148-12.592,5.151
	c-5.127,0-9.994-2.046-13.707-5.756c-1.193-1.193-3.126-1.193-4.319,0L10.997,26.029c-0.576,0.576-0.898,1.357-0.895,2.171
	c0.003,0.814,0.331,1.593,0.91,2.162c2.389,2.356,4.131,5.291,5.034,8.488c1.366,4.823,0.769,9.818-1.679,14.065
	c-2.41,4.181-6.338,7.143-11.065,8.345c-0.799,0.203-1.482,0.719-1.894,1.432c-0.412,0.716-0.519,1.566-0.292,2.359l6.126,21.641
	c0.45,1.599,2.094,2.553,3.704,2.123c3.123-0.808,6.451-0.766,9.63,0.137c9.926,2.812,16.004,13.156,13.549,23.06
	c-0.397,1.599,0.549,3.224,2.132,3.671l21.638,6.126c0.274,0.078,0.552,0.116,0.832,0.116c0.534,0,1.062-0.14,1.533-0.412
	c0.716-0.418,1.232-1.104,1.432-1.909c0.766-3.093,2.362-5.92,4.611-8.169c3.322-3.322,7.796-5.151,12.595-5.151
	c5.091,0,9.929,2.016,13.627,5.682c1.199,1.181,3.123,1.178,4.31-0.012l15.509-15.512c0.576-0.573,0.895-1.351,0.895-2.162
	c0-0.814-0.325-1.59-0.901-2.162c-2.344-2.332-4.059-5.24-4.957-8.41c-1.363-4.817-0.772-9.803,1.667-14.047
	c2.401-4.172,6.317-7.137,11.029-8.345c0.799-0.206,1.479-0.722,1.891-1.438C122.377,59.167,122.481,58.32,122.257,57.526z
	 M43.011,42.555c4.745-4.745,11.11-7.358,17.916-7.358c7.092,0,13.803,2.803,18.894,7.892c4.975,4.975,7.778,11.533,7.892,18.467
	c0.113,6.97-2.499,13.487-7.358,18.342c-4.745,4.745-11.107,7.361-17.913,7.361c-7.095,0-13.806-2.803-18.897-7.895
	C33.249,69.065,33.011,52.555,43.011,42.555z"/>
</svg>
