<?xml version="1.0" encoding="utf-8"?>
<!-- Generator: Adobe Illustrator 17.1.0, SVG Export Plug-In . SVG Version: 6.00 Build 0)  -->
<!DOCTYPE svg PUBLIC "-//W3C//DTD SVG 1.1//EN" "http://www.w3.org/Graphics/SVG/1.1/DTD/svg11.dtd">
<svg version="1.1" id="Layer_1" xmlns="http://www.w3.org/2000/svg" xmlns:xlink="http://www.w3.org/1999/xlink" x="0px" y="0px"
	 viewBox="0 0 89.29 91.481" enable-background="new 0 0 89.29 91.481" xml:space="preserve">
<path fill="#FFFFFF" d="M86.998,45.327c-2.121-0.549-4.089-1.679-5.693-3.272c-5.052-5.008-5.258-13.26-0.459-18.396
	c1.127-1.205,1.092-3.09-0.081-4.253L69.107,7.841c-0.591-0.582-1.345-0.889-2.219-0.886c-0.829,0.021-1.616,0.376-2.177,0.984
	c-1.485,1.614-3.379,2.786-5.479,3.388c-1.077,0.31-2.183,0.465-3.293,0.465c-5.604,0-10.653-3.94-12.276-9.583
	c-0.462-1.619-2.153-2.556-3.779-2.091L24.498,4.545c-0.781,0.224-1.444,0.752-1.834,1.467c-0.391,0.713-0.48,1.554-0.251,2.332
	c0.653,2.21,0.722,4.551,0.203,6.776c-1.321,5.661-6.215,9.615-11.903,9.615c-1.05,0-2.109-0.137-3.146-0.409
	c-0.799-0.212-1.646-0.089-2.353,0.337c-0.704,0.426-1.208,1.118-1.396,1.921L0.081,42.574c-0.379,1.616,0.605,3.239,2.213,3.653
	c2.141,0.549,4.122,1.682,5.729,3.278c5.037,4.996,5.252,13.236,0.483,18.372c-1.121,1.208-1.083,3.087,0.086,4.247l11.658,11.563
	c0.588,0.582,1.363,0.859,2.213,0.886c0.826-0.018,1.611-0.37,2.174-0.975c1.485-1.599,3.373-2.759,5.461-3.358
	c1.077-0.31,2.186-0.465,3.296-0.465c5.571,0,10.609,3.91,12.249,9.511c0.391,1.33,1.608,2.195,2.932,2.195
	c0.277,0,0.564-0.039,0.844-0.119l15.389-4.426c0.778-0.224,1.438-0.749,1.831-1.458c0.391-0.71,0.483-1.548,0.256-2.326
	c-0.632-2.186-0.695-4.506-0.182-6.711c1.321-5.661,6.215-9.612,11.9-9.612c1.041,0,2.091,0.137,3.12,0.403
	c0.79,0.206,1.637,0.086,2.347-0.343c0.704-0.424,1.205-1.115,1.393-1.918l3.734-15.992C89.587,47.361,88.606,45.742,86.998,45.327z
	 M50.222,65.056c-1.721,0.495-3.498,0.746-5.279,0.746c-8.742,0-16.582-6.028-19.067-14.662c-1.479-5.142-0.931-10.54,1.548-15.199
	c2.496-4.694,6.648-8.076,11.685-9.526c1.721-0.495,3.495-0.746,5.276-0.746c8.745,0,16.585,6.028,19.07,14.662
	C66.518,50.988,60.58,62.08,50.222,65.056z"/>
</svg>
