<?xml version="1.0" encoding="utf-8"?>
<!-- Generator: Adobe Illustrator 17.1.0, SVG Export Plug-In . SVG Version: 6.00 Build 0)  -->
<!DOCTYPE svg PUBLIC "-//W3C//DTD SVG 1.1//EN" "http://www.w3.org/Graphics/SVG/1.1/DTD/svg11.dtd">
<svg version="1.1" id="Layer_1" xmlns="http://www.w3.org/2000/svg" xmlns:xlink="http://www.w3.org/1999/xlink" x="0px" y="0px"
	 viewBox="0 0 169 70" enable-background="new 0 0 169 70" xml:space="preserve">
<g>
	<path fill="#FFFFFF" d="M98.595,30.788c0,0.756-0.185,1.435-0.553,2.037c-0.368,0.602-0.912,1.115-1.631,1.54
		c-0.719,0.425-1.605,0.749-2.66,0.973c-1.055,0.224-2.268,0.336-3.64,0.336c-0.159,0-0.359-0.005-0.602-0.014v0.084
		c0,0.494,0.072,0.926,0.217,1.295c0.144,0.368,0.355,0.67,0.63,0.903c0.275,0.234,0.609,0.403,1,0.511
		c0.392,0.107,0.831,0.161,1.316,0.161c0.728,0,1.493-0.088,2.296-0.266c0.802-0.177,1.503-0.415,2.1-0.714l-0.602,2.912
		c-0.579,0.234-1.239,0.422-1.981,0.567c-0.742,0.144-1.533,0.217-2.373,0.217c-0.999,0-1.867-0.135-2.604-0.406
		c-0.737-0.271-1.346-0.651-1.827-1.141c-0.481-0.49-0.838-1.071-1.071-1.743c-0.234-0.672-0.351-1.413-0.351-2.226
		c0-0.719,0.075-1.432,0.224-2.142c0.149-0.709,0.369-1.388,0.658-2.036c0.29-0.649,0.649-1.251,1.079-1.807
		c0.429-0.555,0.926-1.036,1.491-1.442c0.565-0.406,1.197-0.726,1.897-0.959c0.7-0.234,1.461-0.351,2.282-0.351
		c0.719,0,1.368,0.089,1.946,0.266c0.579,0.178,1.071,0.427,1.477,0.749c0.407,0.322,0.722,0.711,0.945,1.169
		C98.483,29.72,98.595,30.229,98.595,30.788 M95.263,30.788c0-0.308-0.122-0.574-0.364-0.798c-0.242-0.223-0.611-0.336-1.106-0.336
		c-0.373,0-0.753,0.074-1.141,0.224c-0.387,0.149-0.751,0.37-1.092,0.665c-0.34,0.294-0.646,0.653-0.917,1.078
		c-0.271,0.425-0.486,0.912-0.644,1.463c0.989,0,1.82-0.066,2.492-0.196c0.672-0.131,1.214-0.304,1.624-0.518
		c0.411-0.215,0.705-0.46,0.882-0.735C95.174,31.36,95.263,31.078,95.263,30.788"/>
	<polygon fill="#FFFFFF" points="106.617,30.144 100.541,30.144 101.115,27.415 111.517,27.415 111.083,29.473 103.299,38.251 
		109.935,38.251 109.375,40.98 98.301,40.98 98.693,39.104 	"/>
</g>
<g opacity="0.5">
	<path fill="#FFFFFF" d="M117.461,27.519h5.558c1.52,0,2.751,0.442,3.501,1.192c0.557,0.557,0.865,1.269,0.865,2.115v0.039
		c0,1.827-1.192,2.751-2.288,3.193c1.615,0.423,3.038,1.346,3.038,3.212v0.038c0,2.25-1.923,3.673-4.827,3.673h-5.847V27.519z
		 M122.904,33.731c2.019,0,3.462-0.981,3.462-2.769v-0.039c0-1.48-1.212-2.482-3.366-2.482h-4.538v5.29H122.904z M123.346,40.058
		c2.308,0,3.77-1.058,3.77-2.75V37.27c0-1.654-1.443-2.616-4.097-2.616h-4.557v5.404H123.346z"/>
	<path fill="#FFFFFF" d="M136.079,27.423h0.961l6.269,13.557h-1.095l-1.712-3.769h-7.943l-1.713,3.769h-1.038L136.079,27.423z
		 M140.079,36.308l-3.538-7.789l-3.559,7.789H140.079z"/>
	<polygon fill="#FFFFFF" points="145.773,27.518 146.774,27.518 146.774,36.365 155.352,27.518 156.716,27.518 150.832,33.462 
		156.966,40.98 155.658,40.98 150.12,34.173 146.774,37.557 146.774,40.98 145.773,40.98 	"/>
	<polygon fill="#FFFFFF" points="159.141,27.518 168.718,27.518 168.718,28.441 160.142,28.441 160.142,33.731 167.853,33.731 
		167.853,34.654 160.142,34.654 160.142,40.057 168.815,40.057 168.815,40.98 159.141,40.98 	"/>
</g>
<g opacity="0.6">
	<circle cx="46.692" cy="20.892" r="1.892"/>
	<circle cx="37.264" cy="20.892" r="1.892"/>
	<path d="M51.3,49.696c-0.415-0.505-1.152-0.571-1.647-0.146c-2.042,1.754-3.656,3.141-8.036,0.668
		c-5.785-3.268-8.494-0.941-10.672,0.928c-0.493,0.425-0.557,1.179-0.142,1.682c0.417,0.505,1.154,0.571,1.647,0.146
		c2.044-1.754,3.656-3.141,8.034-0.668c2.104,1.187,3.8,1.637,5.214,1.637c2.471,0,4.073-1.376,5.46-2.566
		C51.651,50.954,51.715,50.2,51.3,49.696z"/>
	<path d="M51.3,43.725c-0.415-0.505-1.152-0.571-1.647-0.146c-2.042,1.754-3.656,3.141-8.036,0.668
		c-5.785-3.268-8.494-0.941-10.672,0.931c-0.493,0.423-0.557,1.177-0.142,1.682c0.417,0.503,1.154,0.569,1.647,0.144
		c2.044-1.754,3.656-3.141,8.034-0.668c2.104,1.189,3.8,1.637,5.214,1.637c2.471,0,4.073-1.376,5.46-2.566
		C51.651,44.983,51.715,44.231,51.3,43.725z"/>
	<path d="M49.653,55.521c-2.042,1.754-3.656,3.141-8.036,0.668c-5.785-3.268-8.494-0.941-10.672,0.928
		c-0.493,0.425-0.557,1.179-0.142,1.684c0.417,0.503,1.154,0.569,1.647,0.144c2.044-1.754,3.656-3.141,8.034-0.668
		c2.104,1.189,3.8,1.637,5.214,1.637c2.471,0,4.073-1.376,5.46-2.566c0.493-0.425,0.557-1.179,0.142-1.682
		C50.885,55.161,50.148,55.095,49.653,55.521z"/>
	<path d="M21.87,40.651v6.512l9.162-8.071H23.43C22.569,39.092,21.87,39.791,21.87,40.651z"/>
	<polygon points="21.87,48.753 33.063,39.092 31.901,39.092 21.87,47.677 	"/>
	<g>
		<path d="M45.401,2.952C46.139,2.083,46.618,1.071,46.832,0h-2.025c-0.144,0.488-0.369,0.974-0.715,1.434l0.006,0.004
			C44.098,1.439,43.435,3.856,45.401,2.952z"/>
		<path d="M48.544,13.257l-2.02-4.943c3.05-0.762,5.156-3.622,5.156-6.598c0-0.597-0.115-1.167-0.284-1.716H49.79
			c0.218,0.536,0.349,1.11,0.349,1.716c0,2.393-1.859,4.371-4.341,4.922c-0.027,0.01-0.045,0.029-0.074,0.037
			c-0.894,0.257-1.664,0.286-1.068,2.282L44.76,9.21c-5.343-1.166-9.33,0.314-11.154,1.243l-0.28-0.956
			c1.105-0.208,1.873-0.435,1.986-0.47c0.52-0.16,0.811-0.713,0.651-1.232c-0.162-0.52-0.715-0.809-1.232-0.651
			c-0.093,0.029-8.993,2.714-10.713-2.336c-0.46-1.35-0.164-2.488,0.902-3.48C25.5,0.789,26.24,0.35,27.054,0h-3.586
			c-1.533,1.497-2.006,3.421-1.317,5.444c1.208,3.537,4.567,4.412,7.59,4.412c0.555,0,1.093-0.037,1.611-0.084l1.449,4.949
			c-4.013,2.781-6.637,7.325-6.637,12.473h31.629C57.792,21,53.997,15.677,48.544,13.257z M37.264,23.998
			c-1.715,0-3.108-1.391-3.108-3.106c0-1.717,1.393-3.108,3.108-3.108s3.108,1.391,3.108,3.108
			C40.372,22.607,38.979,23.998,37.264,23.998z M34.546,13.661l-0.584-1.993c1.603-0.849,5.766-2.529,11.38-1.036l0.721,1.763
			c-1.305-0.338-2.67-0.535-4.086-0.535C39.29,11.86,36.762,12.514,34.546,13.661z M46.692,23.998c-1.715,0-3.108-1.391-3.108-3.106
			c0-1.717,1.393-3.108,3.108-3.108c1.715,0,3.108,1.391,3.108,3.108C49.8,22.607,48.407,23.998,46.692,23.998z"/>
	</g>
	<path d="M28.973,69.458V70h3.094v-0.542h19.7V70h3.094v-0.542h5.139c-0.227-0.933-0.362-1.901-0.362-2.904
		c0-0.43,0.029-0.854,0.071-1.273c-0.002,0.021-0.008,0.041-0.01,0.061H23.047c-0.002-0.022-0.008-0.042-0.01-0.064
		c0.043,0.42,0.071,0.844,0.071,1.275c0,1.002-0.134,1.971-0.361,2.904H28.973z"/>
	<path d="M1.821,50.796c0.576,4.141,2.571,7.776,3.228,8.885c-1.575,1.252-2.739,3.04-3.177,5.165C1.501,66.641,1.7,68.421,2.343,70
		h3.799c-0.931-1.236-1.35-2.847-1.013-4.481c0.622-3.016,3.572-4.955,6.588-4.332c3.018,0.622,4.957,3.572,4.334,6.588l3.258,0.674
		c0.994-4.815-2.104-9.525-6.918-10.52c-1.512-0.313-3.013-0.221-4.393,0.2c-0.388-0.647-2.281-3.944-2.849-7.539
		c0.743-0.557,1.23-1.437,1.23-2.437c0-0.877-0.375-1.661-0.966-2.219c0.057-0.173,0.103-0.35,0.174-0.519
		c0.973-2.311,3.239-3.936,6.713-4.852c0.729,1.721,2.434,2.929,4.422,2.929c0.053,0,0.102-0.014,0.155-0.016l0.167,12.368
		c1.576,0.952,2.926,2.24,3.95,3.765c-0.021-0.032-0.038-0.068-0.059-0.1V40.945c0.337-0.629,0.544-1.333,0.57-2.09
		c0.385-0.414,0.929-0.677,1.536-0.677h36.801c0.531,0,1.013,0.206,1.385,0.534c0.004,0.914,0.274,1.759,0.721,2.485v18.128
		c-0.008,0.011-0.014,0.024-0.022,0.036c1.032-1.46,2.364-2.693,3.912-3.601l0.166-12.271c0.007,0,0.013,0.002,0.02,0.002
		c1.988,0,3.693-1.208,4.422-2.929c3.474,0.916,5.74,2.541,6.713,4.852c0.071,0.169,0.116,0.346,0.174,0.519
		c-0.592,0.557-0.966,1.342-0.966,2.218c0,1,0.488,1.879,1.23,2.437c-0.568,3.595-2.461,6.892-2.849,7.539
		c-1.38-0.421-2.882-0.513-4.394-0.201c-4.815,0.996-7.913,5.704-6.917,10.522l3.258-0.674c-0.622-3.016,1.317-5.965,4.332-6.588
		c3.016-0.625,5.965,1.317,6.59,4.332c0.337,1.634-0.082,3.245-1.013,4.481h3.798c0.644-1.579,0.843-3.359,0.473-5.154
		c-0.439-2.125-1.602-3.913-3.178-5.165c0.657-1.109,2.652-4.743,3.228-8.885c0.921-0.526,1.549-1.507,1.549-2.643
		c0-1.248-0.75-2.318-1.823-2.792c-0.115-0.413-0.25-0.822-0.419-1.225c-1.469-3.5-4.734-5.839-9.68-6.974
		c-0.63-1.861-2.354-3.209-4.419-3.256l0.026-1.922c0-1.307-1.068-2.377-2.377-2.377H19.098c-1.306,0-2.376,1.07-2.376,2.377
		l0.026,1.913c-0.009,0-0.017-0.003-0.025-0.003c-2.113,0-3.886,1.373-4.528,3.268c-4.946,1.135-8.211,3.473-9.68,6.974
		c-0.169,0.403-0.304,0.813-0.419,1.225c-1.072,0.474-1.823,1.544-1.823,2.792C0.272,49.289,0.9,50.27,1.821,50.796z M47.323,32.272
		c0.935,0,1.693,0.758,1.693,1.693s-0.758,1.693-1.693,1.693S45.63,34.9,45.63,33.965S46.388,32.272,47.323,32.272z M41.441,31.707
		c1.247,0,2.258,1.011,2.258,2.258s-1.01,2.258-2.258,2.258c-1.247,0-2.257-1.011-2.257-2.258S40.194,31.707,41.441,31.707z
		 M35.557,32.272c0.935,0,1.693,0.758,1.693,1.693s-0.758,1.693-1.693,1.693c-0.934,0-1.693-0.758-1.693-1.693
		S34.623,32.272,35.557,32.272z"/>
</g>
</svg>
